<svg width="661" height="661" viewBox="0 0 661 661" fill="none" xmlns="http://www.w3.org/2000/svg">
<path d="M284.23 661C256.138 661 234.798 652.594 220.212 635.783C205.626 618.971 198.322 599.835 198.3 578.375C198.3 564.053 201.473 550.139 207.818 536.633C214.164 523.126 223.936 511.978 237.134 503.186C249.252 495.475 259.035 485.56 266.482 473.441C273.929 461.323 279.019 448.378 281.751 434.608L271.836 429.65C268.531 427.998 265.502 426.07 262.748 423.866L186.733 451.133C177.368 454.438 168.28 457.192 159.466 459.395C150.653 461.598 141.564 462.7 132.2 462.7C97.4975 462.7 66.7831 447.552 40.0566 417.256C13.3302 386.96 -0.0220061 342.618 2.72241e-05 284.23C2.72241e-05 256.138 8.40574 234.798 25.2172 220.212C42.0286 205.626 60.8781 198.322 81.7657 198.3C96.0874 198.3 110.134 201.473 123.904 207.818C137.675 214.164 148.967 223.936 157.781 237.134C165.492 249.252 175.407 259.024 187.526 266.449C199.644 273.874 212.589 278.975 226.359 281.751L231.317 271.836C232.969 268.531 234.897 265.502 237.101 262.748L209.834 186.733C206.529 177.368 203.775 168.28 201.572 159.466C199.369 150.653 198.267 141.84 198.267 133.026C198.267 97.7729 213.415 66.7831 243.711 40.0566C274.007 13.3302 318.36 -0.0220061 376.77 2.72241e-05C404.863 2.72241e-05 426.213 8.40574 440.821 25.2172C455.429 42.0286 462.722 60.8781 462.7 81.7657C462.7 96.0874 459.527 110.134 453.182 123.904C446.836 137.675 437.064 148.967 423.866 157.781C411.748 165.492 401.976 175.407 394.551 187.526C387.126 199.644 382.025 212.589 379.249 226.359L389.164 231.317C392.469 232.969 395.498 234.897 398.253 237.101L474.268 209.008C483.632 205.703 492.588 203.092 501.137 201.175C509.686 199.258 518.632 198.3 527.974 198.3C572.591 198.3 605.917 216.753 627.95 253.659C649.983 290.565 661 331.602 661 376.77C661 404.863 652.187 426.213 634.56 440.821C616.933 455.429 597.379 462.722 575.896 462.7C562.125 462.7 548.762 459.527 535.807 453.182C522.851 446.836 511.978 437.064 503.186 423.866C495.475 411.748 485.56 401.976 473.441 394.551C461.323 387.126 448.378 382.025 434.608 379.249L429.65 389.164C427.998 392.469 426.07 395.498 423.866 398.253L451.133 474.268C454.438 483.081 457.192 491.487 459.395 499.485C461.598 507.483 462.7 515.877 462.7 524.669C463.251 560.473 448.378 592.146 418.083 619.687C387.787 647.229 343.169 661 284.23 661ZM330.5 380.075C344.271 380.075 355.982 375.25 365.632 365.599C375.283 355.949 380.097 344.249 380.075 330.5C380.075 316.729 375.25 305.018 365.599 295.368C355.949 285.717 344.249 280.903 330.5 280.925C316.729 280.925 305.018 285.75 295.368 295.401C285.717 305.052 280.903 316.751 280.925 330.5C280.925 344.271 285.75 355.982 295.401 365.632C305.052 375.283 316.751 380.097 330.5 380.075ZM292.493 221.435C295.798 220.333 299.246 219.364 302.837 218.527C306.429 217.689 309.866 217.006 313.149 216.478C317.555 193.343 325.961 171.86 338.366 152.03C350.771 132.2 367.152 115.675 387.511 102.455C390.265 100.252 392.469 97.4975 394.121 94.1925C395.774 90.8875 396.6 86.7563 396.6 81.7988C396.6 77.3921 394.948 73.6795 391.643 70.6609C388.338 67.6424 383.38 66.1221 376.77 66.1C355.838 66.1 332.153 70.6499 305.713 79.7497C279.273 88.8494 265.502 106.597 264.4 132.993C264.4 137.951 265.094 142.633 266.482 147.039C267.87 151.446 269.104 155.577 270.184 159.433L292.493 221.435ZM132.2 396.6C139.912 396.6 149 394.672 159.466 390.816L221.435 368.508C220.333 365.203 219.364 361.754 218.527 358.163C217.689 354.571 217.006 351.134 216.478 347.851C193.343 343.445 171.86 335.039 152.03 322.634C132.2 310.229 115.675 293.848 102.455 273.489C100.252 270.735 97.3653 268.531 93.7959 266.879C90.2265 265.226 86.2275 264.4 81.7988 264.4C76.8413 264.4 72.9854 266.053 70.2313 269.358C67.4771 272.663 66.1 277.62 66.1 284.23C66.1 313.975 71.7516 340.14 83.0547 362.724C94.3578 385.308 110.74 396.6 132.2 396.6ZM284.23 594.9C310.119 594.9 335.601 589.667 360.675 579.201C385.749 568.735 397.724 550.558 396.6 524.669C396.6 520.262 395.917 516.131 394.551 512.275C393.185 508.419 391.94 504.839 390.816 501.534L368.508 439.565C365.203 440.667 361.754 441.636 358.163 442.473C354.571 443.311 351.134 443.994 347.851 444.523C343.445 467.658 335.039 489.14 322.634 508.97C310.229 528.8 293.848 545.325 273.489 558.545C270.735 560.748 268.388 563.646 266.449 567.237C264.51 570.829 263.827 574.541 264.4 578.375C264.951 582.782 266.603 586.637 269.358 589.942C272.112 593.247 277.069 594.9 284.23 594.9ZM575.896 396.6C580.854 396.6 585.26 395.223 589.116 392.469C592.972 389.715 594.9 384.482 594.9 376.77C594.9 355.838 590.493 332.009 581.68 305.283C572.867 278.556 554.965 264.929 527.974 264.4C523.016 264.4 518.334 264.951 513.927 266.053C509.521 267.154 505.39 268.256 501.534 269.358L439.565 292.493C440.667 295.798 441.636 299.246 442.473 302.837C443.311 306.429 443.994 309.866 444.523 313.149C467.658 317.555 489.14 325.961 508.97 338.366C528.8 350.771 545.325 367.152 558.545 387.511C560.197 390.265 562.676 392.469 565.981 394.121C569.286 395.774 572.591 396.6 575.896 396.6Z" fill="white"/>
</svg>
